<svg xmlns="http://www.w3.org/2000/svg" version="1.1" xmlns:xlink="http://www.w3.org/1999/xlink" xmlns:svgjs="http://svgjs.dev/svgjs" width="1000" height="239" viewBox="0 0 1000 239"><g transform="matrix(1,0,0,1,-0.606051896219924,0.28535538570342567)"><svg viewBox="0 0 396 95" data-background-color="#334155" preserveAspectRatio="xMidYMid meet" height="239" width="1000" xmlns="http://www.w3.org/2000/svg" xmlns:xlink="http://www.w3.org/1999/xlink"><g id="tight-bounds" transform="matrix(1,0,0,1,0.23999695251902153,-0.11342578092813937)"><svg viewBox="0 0 395.5199999999999 95.22685156185625" height="95.22685156185625" width="395.5199999999999"><g><svg viewBox="0 0 560.7980769452004 135.01980994497129" height="95.22685156185625" width="395.5199999999999"><g><rect width="7.737180428772232" height="135.01980994497129" x="137.28649748822863" y="0" fill="#ffffff" opacity="1" stroke-width="0" stroke="transparent" fill-opacity="1" class="rect-o-0" data-fill-palette-color="primary" rx="1%" id="o-0" data-palette-color="#ffffff"></rect></g><g transform="matrix(1,0,0,1,165.27807694520044,0.3358701739924612)"><svg viewBox="0 0 395.52 134.34806959698636" height="134.34806959698636" width="395.52"><g id="textblocktransform"><svg viewBox="0 0 395.52 134.34806959698636" height="134.34806959698636" width="395.52" id="textblock"><g><svg viewBox="0 0 395.52 85.79609544468545" height="85.79609544468545" width="395.52"><g transform="matrix(1,0,0,1,0,0)"><svg width="395.52" viewBox="4.349999904632568 -35 161.33999633789062 35" height="85.79609544468545" data-palette-color="#ffffff"><path d="M19.6 0L5.5 0Q4.95 0 4.65-0.33 4.35-0.65 4.35-1.15L4.35-1.15 4.35-33.8Q4.35-34.35 4.65-34.68 4.95-35 5.5-35L5.5-35 19.2-35Q22.95-35 25.33-33.77 27.7-32.55 28.83-30.45 29.95-28.35 29.95-25.75L29.95-25.75Q29.95-23.7 29.28-22.23 28.6-20.75 27.6-19.83 26.6-18.9 25.65-18.4L25.65-18.4Q27.6-17.45 29.13-15.3 30.65-13.15 30.65-10.1L30.65-10.1Q30.65-7.35 29.4-5.05 28.15-2.75 25.68-1.38 23.2 0 19.6 0L19.6 0ZM9.25-16.2L9.25-4.05 18.95-4.05Q22.15-4.05 23.9-5.8 25.65-7.55 25.65-10.1L25.65-10.1Q25.65-12.75 23.9-14.48 22.15-16.2 18.95-16.2L18.95-16.2 9.25-16.2ZM9.25-30.95L9.25-20.2 18.45-20.2Q21.65-20.2 23.3-21.68 24.95-23.15 24.95-25.7L24.95-25.7Q24.95-28.25 23.3-29.6 21.65-30.95 18.45-30.95L18.45-30.95 9.25-30.95ZM41.45 0L38.9 0Q38.35 0 38.05-0.33 37.75-0.65 37.75-1.15L37.75-1.15 37.75-33.8Q37.75-34.35 38.05-34.68 38.35-35 38.9-35L38.9-35 51.1-35Q56.75-35 60.05-32.35 63.35-29.7 63.35-24.5L63.35-24.5Q63.35-20.65 61.42-18.23 59.5-15.8 56.2-14.85L56.2-14.85 63.9-1.55Q64.05-1.25 64.05-1L64.05-1Q64.05-0.6 63.72-0.3 63.4 0 63 0L63 0 60.6 0Q59.75 0 59.35-0.45 58.95-0.9 58.65-1.35L58.65-1.35 51.4-14.05 42.65-14.05 42.65-1.15Q42.65-0.65 42.32-0.33 42 0 41.45 0L41.45 0ZM42.65-30.8L42.65-18.3 50.9-18.3Q54.65-18.3 56.5-19.88 58.35-21.45 58.35-24.55L58.35-24.55Q58.35-27.6 56.52-29.2 54.7-30.8 50.9-30.8L50.9-30.8 42.65-30.8ZM70.7 0L68.15 0Q67.75 0 67.45-0.3 67.15-0.6 67.15-1L67.15-1Q67.15-1.25 67.2-1.55L67.2-1.55 79.6-33.9Q79.8-34.4 80.15-34.7 80.5-35 81.2-35L81.2-35 84.6-35Q85.3-35 85.65-34.7 86-34.4 86.2-33.9L86.2-33.9 98.55-1.55Q98.65-1.25 98.65-1L98.65-1Q98.65-0.6 98.35-0.3 98.05 0 97.65 0L97.65 0 95.1 0Q94.5 0 94.22-0.3 93.95-0.6 93.85-0.85L93.85-0.85 91.1-7.95 74.7-7.95 71.95-0.85Q71.9-0.6 71.6-0.3 71.3 0 70.7 0L70.7 0ZM82.9-30L76.15-12.25 89.65-12.25 82.9-30ZM107.54 0L105.14 0Q104.59 0 104.29-0.33 103.99-0.65 103.99-1.15L103.99-1.15 103.99-33.8Q103.99-34.35 104.29-34.68 104.59-35 105.14-35L105.14-35 107.44-35Q108.04-35 108.34-34.73 108.64-34.45 108.69-34.3L108.69-34.3 125.29-8.8 125.29-33.8Q125.29-34.35 125.59-34.68 125.89-35 126.44-35L126.44-35 128.84-35Q129.39-35 129.72-34.68 130.04-34.35 130.04-33.8L130.04-33.8 130.04-1.2Q130.04-0.7 129.72-0.35 129.39 0 128.89 0L128.89 0 126.49 0Q125.94 0 125.67-0.3 125.39-0.6 125.29-0.7L125.29-0.7 108.74-25.95 108.74-1.15Q108.74-0.65 108.42-0.33 108.09 0 107.54 0L107.54 0ZM151.49 0L139.89 0Q139.34 0 139.04-0.33 138.74-0.65 138.74-1.15L138.74-1.15 138.74-33.8Q138.74-34.35 139.04-34.68 139.34-35 139.89-35L139.89-35 151.24-35Q156.39-35 159.54-33.45 162.69-31.9 164.14-28.88 165.59-25.85 165.64-21.45L165.64-21.45Q165.69-19.2 165.69-17.5 165.69-15.8 165.64-13.6L165.64-13.6Q165.54-9 164.12-5.98 162.69-2.95 159.62-1.48 156.54 0 151.49 0L151.49 0ZM143.64-30.75L143.64-4.25 151.24-4.25Q154.69-4.25 156.74-5.2 158.79-6.15 159.72-8.25 160.64-10.35 160.69-13.8L160.69-13.8Q160.79-15.3 160.79-16.43 160.79-17.55 160.79-18.68 160.79-19.8 160.69-21.25L160.69-21.25Q160.59-26.1 158.39-28.43 156.19-30.75 150.99-30.75L150.99-30.75 143.64-30.75Z" opacity="1" transform="matrix(1,0,0,1,0,0)" fill="#ffffff" class="wordmark-text-0" data-fill-palette-color="primary" id="text-0"></path></svg></g></svg></g><g transform="matrix(1,0,0,1,0,106.050494472885)"><svg viewBox="0 0 232.20979199999996 28.297575124101353" height="28.297575124101353" width="232.20979199999996"><g transform="matrix(1,0,0,1,0,0)"><svg width="232.20979199999996" viewBox="1.7000000476837158 -37.20000076293945 424.2099914550781 51.70000076293945" height="28.297575124101353" data-palette-color="#ffffff"><path d="M6.4-31.2Q5.9-32.85 4.65-32.85L4.65-32.85Q4.5-32.85 4.1-32.75L4.1-32.75Q3.55-32.55 3.25-32.15L3.25-32.15 1.7-33.25Q1.85-33.65 2.33-34.02 2.8-34.4 3.5-34.65L3.5-34.65Q4.35-34.9 4.85-34.9L4.85-34.9Q6.1-34.9 7.03-34.1 7.95-33.3 8.4-31.8L8.4-31.8 17.15-4.7 17.7-2.05 18.3-4.7 27.8-34.3 30.3-34.3 39.8-4.7 40.4-1.9 40.95-4.7 50.45-34.3 52.75-34.3 41.65-0.05 39.15-0.05 29.05-31 19-0.05 16.5-0.05 6.4-31.2ZM66 0.45Q60.45 0.45 57.6-2.83 54.75-6.1 54.75-11.45L54.75-11.45Q54.75-14.9 55.95-18.05 57.15-21.2 59.65-23.23 62.15-25.25 65.8-25.25L65.8-25.25Q69.6-25.25 72.15-23.2 74.7-21.15 74.7-17.75L74.7-17.75Q74.7-14.15 71.72-12.2 68.75-10.25 63.65-10.25L63.65-10.25 57-10.25Q57.4-6.05 59.7-3.75 62-1.45 66-1.45L66-1.45Q68.25-1.45 70.12-2.1 72-2.75 74-4L74-4 75.05-2.55Q70.8 0.45 66 0.45L66 0.45ZM63.65-12.15Q67.65-12.15 70.12-13.5 72.6-14.85 72.6-17.8L72.6-17.8Q72.6-20.5 70.6-21.93 68.6-23.35 65.95-23.35L65.95-23.35Q62.9-23.35 60.82-21.53 58.75-19.7 57.77-17.07 56.8-14.45 56.9-12.15L56.9-12.15 63.65-12.15ZM105.59-25.25Q109.04-25.25 111.44-23.55 113.84-21.85 115.04-18.98 116.24-16.1 116.24-12.55L116.24-12.55Q116.24-8.7 114.82-5.78 113.39-2.85 110.67-1.2 107.94 0.45 104.14 0.45L104.14 0.45Q102.14 0.45 97.69-0.15L97.69-0.15 97.69 13 95.59 13 95.59-18.05Q95.59-20.25 95.14-21.53 94.69-22.8 93.74-24L93.74-24 95.14-25.35Q96.19-24.35 96.87-23.05 97.54-21.75 97.64-20.35L97.64-20.35Q98.69-22.9 100.77-24.08 102.84-25.25 105.59-25.25L105.59-25.25ZM103.89-1.45Q108.84-1.45 111.49-4.42 114.14-7.4 114.14-12.25L114.14-12.25Q114.14-15.25 113.14-17.78 112.14-20.3 110.22-21.83 108.29-23.35 105.74-23.35L105.74-23.35Q103.79-23.35 102.02-22.48 100.24-21.6 99.04-20.03 97.84-18.45 97.69-16.45L97.69-16.45 97.69-1.95Q102.69-1.45 103.89-1.45L103.89-1.45ZM132.14-25.25Q132.84-25.25 134.74-24.9L134.74-24.9 134.74-23Q133.29-23.25 132.24-23.25L132.24-23.25Q129.39-23.25 127.64-21.85L127.64-21.85Q126.89-21.2 126.04-20.18 125.19-19.15 124.59-18L124.59-18 124.59-0.05 122.49-0.05 122.49-18.1Q122.49-20.3 122.04-21.58 121.59-22.85 120.64-24.05L120.64-24.05 122.04-25.4Q123.14-24.35 123.81-23.03 124.49-21.7 124.59-20.25L124.59-20.25Q125.24-21.55 126.14-22.6 127.04-23.65 127.94-24.2L127.94-24.2Q129.64-25.25 132.14-25.25L132.14-25.25ZM148.99 0.45Q145.44 0.45 142.71-1.15 139.99-2.75 138.46-5.65 136.94-8.55 136.94-12.3L136.94-12.3Q136.94-16.1 138.46-19.03 139.99-21.95 142.74-23.6 145.49-25.25 149.04-25.25L149.04-25.25Q152.59-25.25 155.34-23.63 158.09-22 159.61-19.07 161.14-16.15 161.14-12.35L161.14-12.35Q161.14-8.6 159.61-5.68 158.09-2.75 155.34-1.15 152.59 0.45 148.99 0.45L148.99 0.45ZM149.04-1.45Q151.99-1.45 154.26-2.85 156.54-4.25 157.79-6.78 159.04-9.3 159.04-12.55L159.04-12.55Q159.04-15.75 157.79-18.2 156.54-20.65 154.26-22 151.99-23.35 149.04-23.35L149.04-23.35Q146.09-23.35 143.81-21.98 141.54-20.6 140.29-18.1 139.04-15.6 139.04-12.35L139.04-12.35Q139.04-9.15 140.29-6.68 141.54-4.2 143.81-2.83 146.09-1.45 149.04-1.45L149.04-1.45ZM166.63-21Q166.33-21.75 165.69-22.55 165.03-23.35 164.28-23.85L164.28-23.85 165.48-25.5Q166.78-24.6 167.61-23.35 168.44-22.1 169.08-20.4L169.08-20.4 175.83-2.85 184.03-24.8 186.23-24.8 177.03-0.05 174.69-0.05 166.63-21ZM193.48-3.8Q193.48-2.6 194.03-2 194.58-1.4 195.48-1.4L195.48-1.4Q196.33-1.4 196.98-2.2L196.98-2.2 198.53-1.1Q197.38 0.5 195.43 0.5L195.43 0.5Q193.63 0.5 192.51-0.68 191.38-1.85 191.38-3.85L191.38-3.85 191.38-25 193.48-25 193.48-3.8ZM192.43-28.75Q191.63-28.75 191.13-29.25 190.63-29.75 190.63-30.55L190.63-30.55Q190.63-31.35 191.13-31.85 191.63-32.35 192.43-32.35L192.43-32.35Q193.23-32.35 193.76-31.85 194.28-31.35 194.28-30.55L194.28-30.55Q194.28-29.75 193.76-29.25 193.23-28.75 192.43-28.75L192.43-28.75ZM211.33 0.45Q207.93 0.45 205.55-1.28 203.18-3 201.95-5.9 200.73-8.8 200.73-12.35L200.73-12.35Q200.73-16.2 202.18-19.1 203.63-22 206.35-23.63 209.08-25.25 212.83-25.25L212.83-25.25Q214.53-25.25 216.4-25.05 218.28-24.85 219.28-24.65L219.28-24.65 219.28-36.4 221.38-36.4 221.38-3.9Q221.38-2.7 221.93-2.13 222.48-1.55 223.38-1.55L223.38-1.55Q223.83-1.55 224.3-1.8 224.78-2.05 224.98-2.4L224.98-2.4 226.58-1.4Q226.08-0.55 225.2-0.1 224.33 0.35 223.38 0.35L223.38 0.35Q221.53 0.35 220.48-0.73 219.43-1.8 219.33-3.8L219.33-3.8Q218.38-2.05 216.15-0.8 213.93 0.45 211.33 0.45L211.33 0.45ZM211.33-1.45Q213.68-1.45 215.6-2.63 217.53-3.8 218.53-5.85L218.53-5.85Q219.28-7.45 219.28-9.3L219.28-9.3 219.28-22.7Q217.13-23.35 213.88-23.35L213.88-23.35Q208.18-23.35 205.5-20.3 202.83-17.25 202.83-12.35L202.83-12.35Q202.83-7.7 205.05-4.58 207.28-1.45 211.33-1.45L211.33-1.45ZM240.03 0.45Q234.48 0.45 231.63-2.83 228.78-6.1 228.78-11.45L228.78-11.45Q228.78-14.9 229.98-18.05 231.18-21.2 233.68-23.23 236.18-25.25 239.83-25.25L239.83-25.25Q243.63-25.25 246.18-23.2 248.73-21.15 248.73-17.75L248.73-17.75Q248.73-14.15 245.75-12.2 242.78-10.25 237.68-10.25L237.68-10.25 231.03-10.25Q231.43-6.05 233.73-3.75 236.03-1.45 240.03-1.45L240.03-1.45Q242.28-1.45 244.15-2.1 246.03-2.75 248.03-4L248.03-4 249.08-2.55Q244.83 0.45 240.03 0.45L240.03 0.45ZM237.68-12.15Q241.68-12.15 244.15-13.5 246.63-14.85 246.63-17.8L246.63-17.8Q246.63-20.5 244.63-21.93 242.63-23.35 239.98-23.35L239.98-23.35Q236.93-23.35 234.85-21.53 232.78-19.7 231.8-17.07 230.83-14.45 230.93-12.15L230.93-12.15 237.68-12.15ZM269.32-25.3Q269.32-31.55 271.17-34.38 273.02-37.2 277.12-37.2L277.12-37.2Q280.47-37.2 282.27-35.3 284.07-33.4 284.07-29.9L284.07-29.9Q284.07-25.65 281.45-23.35 278.82-21.05 274.22-21.2L274.22-21.2 271.42-21.3 271.42-12.2 278.97-12.2 278.97-10.3 271.42-10.3 271.42 13.2 269.32 13.2 269.32-25.3ZM274.22-23.1Q277.77-23.1 279.87-24.95 281.97-26.8 281.97-29.95L281.97-29.95Q281.97-32.4 280.62-33.85 279.27-35.3 277.02-35.3L277.02-35.3Q271.42-35.3 271.42-25.45L271.42-25.45 271.42-23.1 274.22-23.1ZM297.22 0.45Q293.67 0.45 290.94-1.15 288.22-2.75 286.69-5.65 285.17-8.55 285.17-12.3L285.17-12.3Q285.17-16.1 286.69-19.03 288.22-21.95 290.97-23.6 293.72-25.25 297.27-25.25L297.27-25.25Q300.82-25.25 303.57-23.63 306.32-22 307.85-19.07 309.37-16.15 309.37-12.35L309.37-12.35Q309.37-8.6 307.85-5.68 306.32-2.75 303.57-1.15 300.82 0.45 297.22 0.45L297.22 0.45ZM297.27-1.45Q300.22-1.45 302.5-2.85 304.77-4.25 306.02-6.78 307.27-9.3 307.27-12.55L307.27-12.55Q307.27-15.75 306.02-18.2 304.77-20.65 302.5-22 300.22-23.35 297.27-23.35L297.27-23.35Q294.32-23.35 292.05-21.98 289.77-20.6 288.52-18.1 287.27-15.6 287.27-12.35L287.27-12.35Q287.27-9.15 288.52-6.68 289.77-4.2 292.05-2.83 294.32-1.45 297.27-1.45L297.27-1.45ZM325.17-25.25Q325.87-25.25 327.77-24.9L327.77-24.9 327.77-23Q326.32-23.25 325.27-23.25L325.27-23.25Q322.42-23.25 320.67-21.85L320.67-21.85Q319.92-21.2 319.07-20.18 318.22-19.15 317.62-18L317.62-18 317.62-0.05 315.52-0.05 315.52-18.1Q315.52-20.3 315.07-21.58 314.62-22.85 313.67-24.05L313.67-24.05 315.07-25.4Q316.17-24.35 316.84-23.03 317.52-21.7 317.62-20.25L317.62-20.25Q318.27-21.55 319.17-22.6 320.07-23.65 320.97-24.2L320.97-24.2Q322.67-25.25 325.17-25.25L325.17-25.25ZM358.01 14.5Q354.81 14.5 352.76 12.35 350.71 10.2 350.71 6.9L350.71 6.9Q350.71 4.75 351.79 2.95 352.86 1.15 354.71 0.3L354.71 0.3Q350.56 0.3 348.44-1.48 346.31-3.25 346.31-6.75L346.31-6.75 346.31-18.15Q346.31-20.35 345.86-21.63 345.41-22.9 344.46-24.1L344.46-24.1 345.86-25.45Q347.01-24.3 347.71-22.83 348.41-21.35 348.41-19.8L348.41-19.8 348.41-7.8Q348.41-4.55 349.81-3.08 351.21-1.6 354.36-1.6L354.36-1.6Q356.71-1.6 358.61-2.6 360.51-3.6 362.36-5.9L362.36-5.9Q362.76-6.65 362.94-7.2 363.11-7.75 363.11-8.4L363.11-8.4 363.16-25 365.26-25 365.21-6.7 365.21 6.25Q365.21 10.05 363.29 12.28 361.36 14.5 358.01 14.5L358.01 14.5ZM357.96 12.5Q360.31 12.5 361.71 10.85 363.11 9.2 363.11 6.45L363.11 6.45 363.11-3.95Q361.71-2.15 359.71-0.8L359.71-0.8Q357.96 0.2 356.91 0.75L356.91 0.75Q354.76 1.85 353.79 3.3 352.81 4.75 352.81 6.8L352.81 6.8Q352.81 9.3 354.24 10.9 355.66 12.5 357.96 12.5L357.96 12.5ZM383.81 0.45Q380.26 0.45 377.54-1.15 374.81-2.75 373.29-5.65 371.76-8.55 371.76-12.3L371.76-12.3Q371.76-16.1 373.29-19.03 374.81-21.95 377.56-23.6 380.31-25.25 383.86-25.25L383.86-25.25Q387.41-25.25 390.16-23.63 392.91-22 394.44-19.07 395.96-16.15 395.96-12.35L395.96-12.35Q395.96-8.6 394.44-5.68 392.91-2.75 390.16-1.15 387.41 0.45 383.81 0.45L383.81 0.45ZM383.86-1.45Q386.81-1.45 389.09-2.85 391.36-4.25 392.61-6.78 393.86-9.3 393.86-12.55L393.86-12.55Q393.86-15.75 392.61-18.2 391.36-20.65 389.09-22 386.81-23.35 383.86-23.35L383.86-23.35Q380.91-23.35 378.64-21.98 376.36-20.6 375.11-18.1 373.86-15.6 373.86-12.35L373.86-12.35Q373.86-9.15 375.11-6.68 376.36-4.2 378.64-2.83 380.91-1.45 383.86-1.45L383.86-1.45ZM418.66-3.8Q415.36 0.35 409.66 0.35L409.66 0.35Q405.91 0.35 403.96-1.38 402.01-3.1 401.81-6.75L401.81-6.75 401.81-18.2Q401.81-20.4 401.36-21.68 400.91-22.95 399.96-24.15L399.96-24.15 401.36-25.5Q402.51-24.35 403.21-22.88 403.91-21.4 403.91-19.85L403.91-19.85 403.91-8.05Q403.91-1.55 409.96-1.55L409.96-1.55Q412.71-1.55 414.66-2.83 416.61-4.1 418.61-6.75L418.61-6.75 418.66-25 420.76-25 420.71-3.9Q420.71-2.7 421.26-2.13 421.81-1.55 422.71-1.55L422.71-1.55Q423.16-1.55 423.63-1.8 424.11-2.05 424.31-2.4L424.31-2.4 425.91-1.4Q425.41-0.55 424.53-0.1 423.66 0.35 422.71 0.35L422.71 0.35Q420.86 0.35 419.81-0.73 418.76-1.8 418.66-3.8L418.66-3.8Z" opacity="1" transform="matrix(1,0,0,1,0,0)" fill="#ffffff" class="slogan-text-1" data-fill-palette-color="secondary" id="text-1"></path></svg></g></svg></g></svg></g></svg></g><g transform="matrix(1,0,0,1,0,0.3358701739924612)"><svg viewBox="0 0 117.03209846002906 134.34806959698636" height="134.34806959698636" width="117.03209846002906"><g><svg xmlns="http://www.w3.org/2000/svg" xmlns:xlink="http://www.w3.org/1999/xlink" version="1.1" x="0" y="0" viewBox="10.100000381469727 5.199999809265137 78.4000015258789 90" enable-background="new 0 0 100 100" xml:space="preserve" height="134.34806959698636" width="117.03209846002906" class="icon-icon-0" data-fill-palette-color="accent" id="icon-0"><polygon fill-rule="evenodd" clip-rule="evenodd" fill="#ffffff" points="88.5,28.2 68.4,59.9 68.5,22.3 " data-fill-palette-color="accent"></polygon><polygon fill-rule="evenodd" clip-rule="evenodd" fill="#ffffff" points="49.8,5.2 67.2,38.5 34.7,19.6 " data-fill-palette-color="accent"></polygon><polygon fill-rule="evenodd" clip-rule="evenodd" fill="#ffffff" points="67.8,38.3 67.8,22.3 60.8,24.5 " data-fill-palette-color="accent"></polygon><polygon fill-rule="evenodd" clip-rule="evenodd" fill="#ffffff" points="88.2,73.2 50.6,71.7 83.2,52.9 " data-fill-palette-color="accent"></polygon><polygon fill-rule="evenodd" clip-rule="evenodd" fill="#ffffff" points="69.1,60.3 82.8,52.3 77.4,47.4 " data-fill-palette-color="accent"></polygon><polygon fill-rule="evenodd" clip-rule="evenodd" fill="#ffffff" points="48.7,95.2 31.5,61.9 63.9,80.9 " data-fill-palette-color="accent"></polygon><polygon fill-rule="evenodd" clip-rule="evenodd" fill="#ffffff" points="50.5,72.2 64.2,80.2 65.8,73.1 " data-fill-palette-color="accent"></polygon><polygon fill-rule="evenodd" clip-rule="evenodd" fill="#ffffff" points="10.1,72 30.5,40.4 30.1,78 " data-fill-palette-color="accent"></polygon><polygon fill-rule="evenodd" clip-rule="evenodd" fill="#ffffff" points="30.9,62.1 30.8,78 37.8,75.8 " data-fill-palette-color="accent"></polygon><polygon fill-rule="evenodd" clip-rule="evenodd" fill="#ffffff" points="11,27 48.5,28.9 15.8,47.3 " data-fill-palette-color="accent"></polygon><polygon fill-rule="evenodd" clip-rule="evenodd" fill="#ffffff" points="30,40.1 16.1,47.9 21.5,52.9 " data-fill-palette-color="accent"></polygon><polygon fill-rule="evenodd" clip-rule="evenodd" fill="#ffffff" points="48.2,28.3 34.5,20.2 32.9,27.4 " data-fill-palette-color="accent"></polygon></svg></g></svg></g></svg></g><defs></defs></svg><rect width="395.5199999999999" height="95.22685156185625" fill="none" stroke="none" visibility="hidden"></rect></g></svg></g></svg>